<?xml version="1.0" encoding="utf-8"?>
<!-- Generator: Adobe Illustrator 21.1.0, SVG Export Plug-In . SVG Version: 6.00 Build 0)  -->
<svg version="1.1" id="Layer_1" xmlns="http://www.w3.org/2000/svg" xmlns:xlink="http://www.w3.org/1999/xlink" x="0px" y="0px"
	 viewBox="0 0 269.2486 280" style="enable-background:new 0 0 269.2486 280;" xml:space="preserve">
<g>
	<path style="fill:#ADDBD1;" d="M269.2486,138.7914c0,56.1512-32.3687,104.5764-78.9154,126.3747
		c-6.9552,3.3111-14.178,5.9324-21.802,8.0019c-0.2675,0.138-0.535,0.138-0.8025,0.2759c-2.4076,0.6898-4.6814,1.1037-7.089,1.6556
		c-8.4266,1.6555-17.1206,2.6213-25.9485,2.6213c-6.2865,0-12.4392-0.4139-18.4582-1.3796c-0.1338,0-0.2675,0-0.535,0
		c-9.0953-1.2417-17.7894-3.5871-26.0822-6.6223c-6.2865-2.3454-12.3055-5.1046-18.0569-8.2778
		c-3.4776-1.9315-6.9553-4.0009-10.2991-6.3463c-0.9363-0.5518-1.7388-1.1037-2.5413-1.7935
		c-11.1017-7.8639-20.9995-17.3834-29.2923-28.1446c-4.2802-5.5185-8.0253-11.313-11.5029-17.3834l0,0
		C6.4202,187.4925,0,163.9008,0,138.7914C0,62.0836,60.1897,0,134.5574,0S269.2486,62.0836,269.2486,138.7914z"/>
</g>
<g>
	<circle style="fill:#222226;" cx="77.0898" cy="29.1446" r="23.141"/>
</g>
<g>
	<path style="fill:#222226;" d="M99.2751,124.3559c-41.2559,7.8062-51.7927-38.2583-52.2554-40.4986
		c-5.9283-28.6997,10.6609-48.1435,34.291-53.347s46.6762,5.6307,53.1708,32.6564
		C134.6106,63.7041,146.3527,115.4482,99.2751,124.3559z"/>
</g>
<g>
	<path style="fill:#FFFFFF;" d="M144.0585,158.67l-8.14,119.04c-0.41,0.01-0.8199,0.01-1.23,0.01c-6.28,0-12.44-0.4-18.46-1.34
		h-0.53c-9.1-1.2-17.79-3.47-26.08-6.42c-6.29-2.27-12.31-4.95-18.06-8.02c-3.48-1.87-6.95-3.88-10.3-6.16
		c-0.94-0.53-1.74-1.07-2.54-1.73c-2.47-1.7-4.89-3.48-7.2401-5.35l-2.85-93.86l33.86-7.72l25.77,0.16L144.0585,158.67z"/>
</g>
<g>
	<path style="fill:#CC8D6D;" d="M96.3437,165.4944c14.593,0,11.6824-14.3745,11.6824-14.3745l0.2322-35.6459
		c0.0511-7.843-5.611-14.2381-12.6465-14.2839h0c-7.0356-0.0458-12.7804,6.275-12.8315,14.1179L82.548,150.954
		C82.548,150.954,81.7507,165.4944,96.3437,165.4944z"/>
</g>
<g>
	<path style="fill:#FFFFFF;" d="M108.2586,173.3111H82.4837v-30.6872c0,0,6.7982,0.908,13.0924,0.8444
		c6.2941-0.0636,12.6825-0.8444,12.6825-0.8444V173.3111z"/>
</g>
<g>
	
		<ellipse transform="matrix(0.932 -0.3625 0.3625 0.932 -40.1629 46.5921)" style="fill:#D69F7D;" cx="104.0881" cy="130.3315" rx="9.2546" ry="9.2546"/>
</g>
<g>
	
		<ellipse transform="matrix(0.9797 -0.2007 0.2007 0.9797 -16.3007 20.9598)" style="fill:#D69F7D;" cx="95.2174" cy="90.8706" rx="31.8253" ry="45.6832"/>
</g>
<g>
	<path style="fill:#C38266;" d="M96.2006,107.8436L96.2006,107.8436l-2.1382-8.607c-0.3772-1.5605,0.5821-3.1312,2.1426-3.5084h0
		c1.5605-0.3772,3.1312,0.5821,3.5084,2.1426l2.1382,8.607l0,0c1.3524-0.3269,2.7137,0.5045,3.0406,1.8569v0
		c0.2012,0.8323-0.3104,1.67-1.1427,1.8711l-1.6953,0.4097l0.1821,0.7535c0.2766,1.1443-0.4269,2.2962-1.5712,2.5728h0
		c-1.1443,0.2766-2.2962-0.4269-2.5728-1.5712l-0.1821-0.7535l-1.6953,0.4097c-0.8323,0.2011-1.67-0.3105-1.8711-1.1427v0
		C94.0168,109.5318,94.8482,108.1704,96.2006,107.8436z"/>
</g>
<g id="XMLID_55_">
	<ellipse transform="matrix(0.9839 -0.1789 0.1789 0.9839 -14.5553 20.9178)" cx="108.6786" cy="91.1451" rx="2.7971" ry="2.7972"/>
</g>
<g id="XMLID_54_">
	<ellipse transform="matrix(0.9839 -0.1789 0.1789 0.9839 -15.8977 16.8106)" cx="85.2395" cy="96.5333" rx="2.758" ry="2.758"/>
</g>
<g>
	<path style="fill:#222226;" d="M101.1999,84.835c-0.2949,0-0.5918-0.0957-0.8418-0.292c-0.5918-0.4653-0.6938-1.3223-0.2285-1.9141
		c1.438-1.8271,3.5161-2.9404,5.8521-3.1338c2.4053-0.1963,4.8682,0.625,6.5981,2.2017c0.5566,0.5068,0.5967,1.3691,0.0894,1.9253
		c-0.5059,0.5571-1.3687,0.5967-1.9253,0.0894c-1.1812-1.0762-2.877-1.6396-4.5371-1.4995
		c-1.5732,0.1304-2.9702,0.877-3.9346,2.1025C102.0031,84.6562,101.6037,84.835,101.1999,84.835z"/>
</g>
<g>
	<path style="fill:#222226;" d="M77.0896,92.147c-0.1602,0-0.3228-0.0283-0.481-0.0879c-0.7046-0.2656-1.0601-1.0522-0.7944-1.7563
		c0.8071-2.1392,2.4082-3.8535,4.5083-4.8267c2.1157-0.98,4.459-1.0767,6.5952-0.2705c0.7046,0.2656,1.0601,1.0522,0.7944,1.7563
		c-0.2656,0.7046-1.0537,1.0581-1.7563,0.7944c-1.4473-0.5459-3.041-0.4775-4.4873,0.1934
		c-1.4482,0.6709-2.5503,1.8481-3.1035,3.3149C78.1589,91.8105,77.6404,92.147,77.0896,92.147z"/>
</g>
<g>
	
		<ellipse transform="matrix(0.8023 -0.597 0.597 0.8023 -47.4657 58.6508)" style="fill:#D69F7D;" cx="64.8013" cy="100.9755" rx="6.3069" ry="9.8544"/>
</g>
<g>
	
		<ellipse transform="matrix(0.2334 -0.9724 0.9724 0.2334 11.7153 191.2608)" style="fill:#D69F7D;" cx="127.1567" cy="88.2004" rx="9.8543" ry="6.3069"/>
</g>
<g>
	
		<ellipse transform="matrix(0.9797 -0.2007 0.2007 0.9797 -21.2208 15.6057)" style="fill:#0095CC;" cx="66.3526" cy="112.4579" rx="3.4595" ry="3.4595"/>
</g>
<g>
	
		<ellipse transform="matrix(0.9797 -0.2007 0.2007 0.9797 -17.2706 28.236)" style="fill:#0095CC;" cx="130.617" cy="99.2917" rx="3.4595" ry="3.4595"/>
</g>
<g id="XMLID_53_" style="opacity:0.5;">
	<path style="fill:#CC4452;" d="M97.2785,122.7036c-0.6499,0-1.2583-0.4058-1.4849-1.0542
		c-0.2866-0.8198,0.1455-1.7173,0.9658-2.0039c0.7383-0.2583,1.3892-0.4976,1.9766-0.7134c2.708-0.9951,4.3428-1.5962,6.9326-1.2314
		c0.8604,0.1206,1.46,0.916,1.3389,1.7764c-0.1206,0.8599-0.9141,1.458-1.7764,1.3389c-1.8071-0.2534-2.8633,0.1328-5.4102,1.0693
		c-0.6011,0.2207-1.2671,0.4653-2.0234,0.73C97.6262,122.6753,97.4509,122.7036,97.2785,122.7036z"/>
</g>
<g>
	
		<ellipse transform="matrix(0.7042 -0.71 0.71 0.7042 -109.1953 90.2425)" style="fill:#FFFFFF;" cx="53.7039" cy="176.1684" rx="22.0583" ry="22.0583"/>
</g>
<g>
	<polygon style="fill:#FFFFFF;" points="70.9254,190.1984 60.2583,267.8101 38.352,265.5382 31.6456,177.1774 	"/>
</g>
<g>
	
		<ellipse transform="matrix(0.0052 -1 1 0.0052 -40.0704 321.3701)" style="fill:#FFFFFF;" cx="141.4863" cy="180.8246" rx="22.0583" ry="22.0583"/>
</g>
<g>
	<polygon style="fill:#FFFFFF;" points="162.8311,175.2034 181.4226,260.5052 152.5882,271.3629 122.4357,192.0734 	"/>
</g>
<g>
	<path style="fill:#222226;" d="M87.998,37.4561c24.2524-2.6894,40.5845,12.6503,44.2005,32.5669
		c3.616,19.9166-9.7396,22.0969-9.7396,22.0969s2.7241-3.3028-0.3246-8.4907c-8.8936-15.1342-34.7972,3.7795-54.985-19.714
		C62.2955,55.6525,68.3195,39.6382,87.998,37.4561z"/>
</g>
<g>
	<polygon style="fill:#D69F7D;" points="83.2974,181.9394 40.6278,256.3761 67.7231,271.1199 95.3649,183.8452 	"/>
</g>
<g>
	<path style="fill:#D69F7D;" d="M83.0203,184.55l3.1168-32.7881c0.1038-1.3236,0.9984-2.4527,2.2632-2.8566l10.8379-4.2385
		c1.0058-0.4067,2.1469-0.2955,3.0552,0.2977l3.2976,3.1199c0.9674,0.6317,2.1266,3.868,2.1266,3.868
		c0.1035,0.871-1.422,1.3097-2.638,0.2095l-2.1673-2.5371c-0.5775-0.5169-1.3963-0.6657-2.1188-0.385l-4.7606,2.615l6.2122-0.8009
		l3.1141,1.808l0.0215,8.0172c0.0042,1.5818-0.5599,3.078-1.5416,4.2454c-0.9069,1.0785-2.2731,1.6661-3.6822,1.6799L99.18,166.814
		l-0.7603,7.5971c-0.2368,2.3662-3.117,9.4341-3.117,9.4341L83.0203,184.55z"/>
</g>
<g>
	<path style="fill:#CC8D6D;" d="M99.2463,166.7334c-0.0063,0-0.0127,0-0.0186-0.001c-0.188-0.0098-0.3325-0.1699-0.3223-0.3584
		l0.124-2.3154c0.0298-0.6152,0.2441-1.0898,0.6382-1.4082c0.793-0.6396,2.1084-0.4873,3.2788-0.29
		c0.1855,0.0303,0.311,0.2061,0.2798,0.3916c-0.0308,0.1855-0.2061,0.3086-0.3921,0.2803c-0.7393-0.123-2.1177-0.3506-2.7388,0.1484
		c-0.2388,0.1934-0.3652,0.4922-0.3853,0.9131l-0.124,2.3174C99.5764,166.5928,99.426,166.7334,99.2463,166.7334z"/>
</g>
<g>
	<path style="fill:#D69F7D;" d="M58.0178,279.3519c-10.314,2.8765-20.2491-5.0922-19.6797-15.7846
		c0.3449-6.4749,4.9114-12.1682,11.1571-13.91c10.314-2.8765,20.2491,5.0922,19.6797,15.7847
		C68.83,271.9167,64.2635,277.61,58.0178,279.3519z"/>
</g>
<g>
	
		<ellipse transform="matrix(0.996 -0.0897 0.0897 0.996 -23.0434 15.9882)" style="fill:#D69F7D;" cx="166.4219" cy="264.4604" rx="15.5251" ry="15.5251"/>
</g>
<g>
	<path style="fill:#D69F7D;" d="M166.3585,248.94l-0.29,31.04h-0.12c-38.31-0.7-63.11-3.04-81.16-10.66
		c-0.58-0.25-1.16-0.5-1.73-0.76l-0.29-6.75L166.3585,248.94z"/>
</g>
<g>
	<path style="fill:#D69F7D;" d="M84.7885,269.32c-0.58-0.25-1.16-0.5-1.73-0.76c-3.45-1.56-6.66-3.33-9.66-5.34l9.37-1.41
		L84.7885,269.32z"/>
</g>
<g>
	<circle style="fill:#FFFFFF;" cx="206.8731" cy="105.292" r="43.4729"/>
</g>
<g>
	<circle style="fill:#FFFFFF;" cx="166.139" cy="86.1222" r="8.3258"/>
</g>
<g>
	<circle style="fill:#FFFFFF;" cx="149.7746" cy="80.8284" r="4.3536"/>
</g>
<g>
	<path style="fill:#0095CC;" d="M206.9453,126.9741c-1.2563,0-2.3241-0.431-3.2033-1.2955
		c-0.8792-0.862-1.3188-1.9225-1.3188-3.1788c0-1.2857,0.4396-2.3608,1.3188-3.2253c0.8792-0.8645,1.9469-1.2955,3.2033-1.2955
		c0.5963,0,1.1608,0.1102,1.6947,0.3306c0.5339,0.218,1.0127,0.5339,1.4376,0.9404c0.4237,0.409,0.7604,0.889,1.0114,1.4376
		c0.251,0.5486,0.3772,1.1535,0.3772,1.8122c0,0.6294-0.1261,1.2171-0.3772,1.7657c-0.251,0.551-0.5878,1.0286-1.0114,1.4376
		c-0.4249,0.409-0.9037,0.7225-1.4376,0.9429C208.1061,126.8639,207.5416,126.9741,206.9453,126.9741z M210.5401,113.1508h-7.334
		l-0.926-29.5409h9.1859L210.5401,113.1508z"/>
</g>
</svg>
