<svg xmlns="http://www.w3.org/2000/svg" xmlns:xlink="http://www.w3.org/1999/xlink" width="16px" height="16px" viewBox="0 0 16 16" version="1.1">
  <!-- Generator: Sketch 55.2 (78181) - https://sketchapp.com -->
  <title>Group</title>
  <desc>Created with Sketch.</desc>
  <g id="Page-1" stroke="none" stroke-width="1" fill="none" fill-rule="evenodd">
    <g id="Group">
      <rect id="Rectangle-3" fill="#6264A7" x="0" y="0" width="16" height="16" rx="3"/>
      <svg xmlns="http://www.w3.org/2000/svg" class="app-svg icons-check" role="presentation" viewBox="0 0 32 32" font-size="10" font-weight="normal" fill="#FFFFFF">
        <path class="icons-default-fill" d="M 23.33 10.62 c 0.13 0.06 0.25 0.13 0.35 0.23 c 0.1 0.1 0.18 0.22 0.23 0.35 c 0.05 0.13 0.08 0.27 0.08 0.4 c 0 0.3 -0.1 0.55 -0.31 0.76 l -8.8 8.8 c -0.21 0.21 -0.46 0.31 -0.76 0.31 s -0.55 -0.1 -0.76 -0.31 l -5.07 -5.07 C 8.1 15.89 8 15.63 8 15.33 c 0 -0.13 0.03 -0.27 0.09 -0.4 s 0.14 -0.25 0.24 -0.35 c 0.21 -0.21 0.46 -0.32 0.74 -0.32 c 0.14 0 0.28 0.03 0.42 0.08 c 0.13 0.05 0.25 0.13 0.34 0.23 l 4.31 4.32 l 8.04 -8.05 c 0.09 -0.1 0.21 -0.18 0.34 -0.23 c 0.13 -0.05 0.27 -0.08 0.42 -0.08 C 23.07 10.53 23.2 10.56 23.33 10.62 Z"/>
      </svg>
    </g>
  </g>
</svg>